<svg id="svg" version="1.1" xmlns="http://www.w3.org/2000/svg" xmlns:xlink="http://www.w3.org/1999/xlink" width="400" height="400" viewBox="0, 0, 400,400">
  <style>
    path {
      fill: #000;
    }
    @media (prefers-color-scheme: dark) {
      path {
        fill: #fff;
      }
    }
  </style>
  <g id="svgg">
    <path id="path0" d="M60.742 84.736 C 60.742 84.827,59.009 84.963,56.891 85.038 C 54.772 85.113,52.992 85.247,52.935 85.335 C 52.879 85.424,52.151 85.559,51.318 85.636 C 50.486 85.713,49.805 85.856,49.805 85.954 C 49.805 86.052,49.585 86.133,49.316 86.133 C 49.048 86.133,48.828 86.213,48.828 86.311 C 48.828 86.409,48.477 86.548,48.047 86.621 C 47.617 86.694,47.266 86.833,47.266 86.931 C 47.266 87.029,47.154 87.109,47.019 87.109 C 46.883 87.109,46.465 87.273,46.091 87.474 C 45.716 87.674,44.443 88.169,43.262 88.574 C 38.811 90.099,34.339 92.946,28.391 98.040 C 28.161 98.236,27.765 98.463,27.512 98.543 C 27.258 98.623,26.909 98.852,26.735 99.051 C 26.561 99.251,26.339 99.414,26.241 99.414 C 26.143 99.414,25.918 99.568,25.741 99.756 C 25.563 99.944,25.302 100.205,25.160 100.336 C 25.018 100.468,24.803 100.676,24.681 100.799 C 24.560 100.922,24.208 101.274,23.900 101.580 C 23.183 102.291,22.852 102.688,22.852 102.833 C 22.852 102.896,22.644 103.142,22.390 103.378 C 22.137 103.615,21.867 104.006,21.791 104.248 C 21.715 104.490,21.571 104.688,21.471 104.688 C 21.371 104.688,21.289 104.819,21.289 104.980 C 21.289 105.142,21.203 105.273,21.097 105.273 C 20.992 105.273,20.851 105.493,20.783 105.762 C 20.716 106.030,20.592 106.250,20.508 106.250 C 20.424 106.250,20.300 106.470,20.232 106.738 C 20.165 107.007,20.024 107.227,19.918 107.227 C 19.813 107.227,19.727 107.358,19.727 107.520 C 19.727 107.681,19.640 107.813,19.535 107.813 C 19.430 107.813,19.288 108.032,19.221 108.301 C 19.153 108.569,19.029 108.789,18.945 108.789 C 18.861 108.789,18.733 109.026,18.660 109.315 C 18.588 109.604,18.365 109.982,18.164 110.156 C 17.964 110.330,17.740 110.709,17.668 110.998 C 17.595 111.287,17.461 111.523,17.370 111.523 C 17.280 111.523,17.147 111.831,17.077 112.207 C 17.006 112.583,16.871 112.891,16.775 112.891 C 16.680 112.891,16.602 113.022,16.602 113.184 C 16.602 113.345,16.521 113.477,16.422 113.477 C 16.323 113.477,16.184 113.740,16.113 114.063 C 16.042 114.385,15.904 114.648,15.805 114.648 C 15.706 114.648,15.625 114.780,15.625 114.941 C 15.625 115.103,15.547 115.234,15.451 115.234 C 15.356 115.234,15.220 115.542,15.150 115.918 C 15.079 116.294,14.949 116.602,14.860 116.602 C 14.771 116.602,14.642 116.953,14.573 117.383 C 14.505 117.813,14.362 118.164,14.256 118.164 C 14.149 118.164,14.063 118.376,14.063 118.636 C 14.063 118.896,13.969 119.139,13.855 119.177 C 13.740 119.215,13.597 119.618,13.536 120.073 C 13.475 120.527,13.353 120.898,13.265 120.898 C 13.177 120.898,13.046 121.426,12.973 122.070 C 12.900 122.715,12.764 123.242,12.670 123.242 C 12.577 123.242,12.500 123.506,12.500 123.828 C 12.500 124.150,12.422 124.414,12.328 124.414 C 12.233 124.414,12.093 125.073,12.018 125.879 C 11.943 126.685,11.809 127.344,11.722 127.344 C 11.635 127.344,11.502 128.047,11.426 128.906 C 11.350 129.766,11.209 130.469,11.112 130.469 C 11.016 130.469,10.938 130.820,10.938 131.250 C 10.938 131.680,10.858 132.031,10.761 132.031 C 10.664 132.031,10.524 132.559,10.449 133.203 C 10.374 133.848,10.247 134.375,10.165 134.375 C 10.084 134.375,9.958 135.012,9.886 135.791 C 9.814 136.570,9.669 137.236,9.565 137.272 C 9.460 137.308,9.375 137.594,9.375 137.907 C 9.375 138.220,9.291 138.477,9.189 138.477 C 9.087 138.477,8.944 139.004,8.871 139.648 C 8.798 140.293,8.672 140.820,8.591 140.820 C 8.510 140.820,8.383 141.304,8.309 141.895 C 8.235 142.485,8.093 142.969,7.994 142.969 C 7.894 142.969,7.813 143.232,7.813 143.555 C 7.813 143.877,7.729 144.141,7.627 144.141 C 7.525 144.141,7.382 144.668,7.309 145.313 C 7.236 145.957,7.108 146.484,7.025 146.484 C 6.942 146.484,6.813 147.012,6.738 147.656 C 6.663 148.301,6.523 148.828,6.426 148.828 C 6.329 148.828,6.250 149.136,6.250 149.512 C 6.250 149.888,6.169 150.195,6.070 150.195 C 5.971 150.195,5.829 150.767,5.755 151.465 C 5.680 152.163,5.541 152.734,5.446 152.734 C 5.351 152.734,5.273 153.086,5.273 153.516 C 5.273 153.945,5.193 154.297,5.096 154.297 C 4.998 154.297,4.856 155.044,4.780 155.957 C 4.704 156.870,4.574 157.617,4.493 157.617 C 4.411 157.617,4.281 158.628,4.203 159.863 C 4.126 161.099,3.984 162.109,3.887 162.109 C 3.790 162.109,3.711 162.593,3.711 163.184 C 3.711 163.774,3.635 164.258,3.543 164.258 C 3.451 164.258,3.312 165.421,3.235 166.844 C 3.158 168.266,3.020 169.476,2.929 169.532 C 2.838 169.588,2.700 171.237,2.623 173.196 C 2.545 175.155,2.407 176.758,2.315 176.758 C 2.223 176.758,2.148 178.384,2.148 180.371 C 2.148 182.358,2.074 183.984,1.982 183.984 C 1.891 183.984,1.753 185.938,1.676 188.327 C 1.596 190.798,1.453 192.720,1.344 192.788 C 1.225 192.861,1.107 196.800,1.033 203.191 C 0.967 208.848,0.840 213.477,0.750 213.477 C 0.660 213.477,0.586 219.717,0.586 227.344 C 0.586 234.971,0.660 241.211,0.750 241.211 C 0.840 241.211,0.973 243.162,1.045 245.546 C 1.116 247.930,1.249 249.930,1.340 249.989 C 1.431 250.049,1.567 251.021,1.643 252.148 C 1.718 253.276,1.863 254.229,1.964 254.264 C 2.066 254.300,2.148 254.806,2.148 255.387 C 2.148 255.969,2.228 256.445,2.326 256.445 C 2.424 256.445,2.566 257.192,2.642 258.105 C 2.718 259.019,2.849 259.766,2.934 259.766 C 3.018 259.766,3.148 260.293,3.223 260.938 C 3.297 261.582,3.438 262.109,3.535 262.109 C 3.632 262.109,3.711 262.461,3.711 262.891 C 3.711 263.320,3.789 263.672,3.883 263.672 C 3.978 263.672,4.117 264.243,4.192 264.941 C 4.267 265.640,4.404 266.211,4.498 266.211 C 4.592 266.211,4.728 266.738,4.801 267.383 C 4.874 268.027,5.010 268.555,5.103 268.555 C 5.197 268.555,5.273 268.730,5.273 268.945 C 5.273 269.160,5.353 269.336,5.450 269.336 C 5.548 269.336,5.688 269.775,5.762 270.313 C 5.836 270.850,5.976 271.289,6.073 271.289 C 6.170 271.289,6.250 271.509,6.250 271.777 C 6.250 272.046,6.327 272.266,6.420 272.266 C 6.514 272.266,6.647 272.617,6.716 273.047 C 6.784 273.477,6.916 273.828,7.009 273.828 C 7.101 273.828,7.233 274.180,7.302 274.609 C 7.370 275.039,7.513 275.391,7.619 275.391 C 7.726 275.391,7.813 275.522,7.813 275.684 C 7.813 275.845,7.889 275.977,7.983 275.977 C 8.077 275.977,8.209 276.328,8.278 276.758 C 8.347 277.188,8.489 277.539,8.594 277.539 C 8.699 277.539,8.841 277.891,8.909 278.320 C 8.978 278.750,9.111 279.102,9.205 279.102 C 9.298 279.102,9.375 279.233,9.375 279.395 C 9.375 279.556,9.453 279.688,9.549 279.688 C 9.644 279.688,9.780 279.995,9.850 280.371 C 9.921 280.747,10.056 281.055,10.150 281.055 C 10.244 281.055,10.378 281.318,10.449 281.641 C 10.520 281.963,10.659 282.227,10.758 282.227 C 10.857 282.227,10.938 282.358,10.938 282.520 C 10.938 282.681,11.016 282.813,11.111 282.813 C 11.207 282.813,11.342 283.120,11.413 283.496 C 11.483 283.872,11.616 284.180,11.706 284.180 C 11.797 284.180,11.931 284.416,12.004 284.705 C 12.076 284.994,12.300 285.373,12.500 285.547 C 12.700 285.721,12.924 286.099,12.996 286.389 C 13.069 286.678,13.207 286.914,13.302 286.914 C 13.398 286.914,13.477 287.093,13.477 287.311 C 13.477 287.529,13.608 287.758,13.770 287.820 C 13.931 287.882,14.062 288.055,14.062 288.204 C 14.063 288.354,14.144 288.477,14.245 288.477 C 14.345 288.477,14.488 288.670,14.563 288.907 C 14.639 289.144,14.820 289.457,14.967 289.604 C 15.114 289.751,15.234 289.976,15.234 290.104 C 15.234 290.232,15.454 290.502,15.723 290.704 C 15.991 290.905,16.211 291.150,16.211 291.247 C 16.211 291.344,16.431 291.644,16.699 291.912 C 16.968 292.181,17.187 292.488,17.188 292.595 C 17.188 292.702,17.539 293.124,17.969 293.532 C 18.398 293.941,18.750 294.337,18.750 294.412 C 18.750 294.559,19.089 294.997,19.492 295.371 C 19.631 295.500,19.851 295.718,19.980 295.856 C 21.023 296.968,21.341 297.266,21.486 297.266 C 21.578 297.266,21.709 297.441,21.777 297.656 C 21.846 297.871,22.024 298.047,22.174 298.047 C 22.325 298.047,22.717 298.311,23.047 298.633 C 23.377 298.955,23.693 299.219,23.751 299.219 C 23.809 299.219,23.979 299.329,24.128 299.463 C 24.744 300.015,24.952 300.154,25.357 300.282 C 25.590 300.356,25.781 300.499,25.781 300.599 C 25.781 300.699,25.913 300.781,26.074 300.781 C 26.235 300.781,26.367 300.860,26.367 300.955 C 26.367 301.051,26.587 301.185,26.855 301.252 C 27.124 301.319,27.344 301.454,27.344 301.551 C 27.344 301.648,27.607 301.785,27.930 301.855 C 28.252 301.926,28.516 302.065,28.516 302.164 C 28.516 302.263,28.647 302.344,28.809 302.344 C 28.970 302.344,29.102 302.428,29.102 302.530 C 29.102 302.633,29.409 302.774,29.785 302.845 C 30.161 302.915,30.469 303.050,30.469 303.144 C 30.469 303.239,30.820 303.372,31.250 303.441 C 31.680 303.509,32.031 303.642,32.031 303.736 C 32.031 303.830,32.207 303.906,32.422 303.906 C 32.637 303.906,32.813 303.983,32.813 304.077 C 32.813 304.170,33.164 304.303,33.594 304.372 C 34.023 304.441,34.375 304.572,34.375 304.665 C 34.375 304.757,34.902 304.892,35.547 304.965 C 36.191 305.038,36.719 305.181,36.719 305.283 C 36.719 305.385,36.982 305.469,37.305 305.469 C 37.627 305.469,37.891 305.547,37.891 305.644 C 37.891 305.740,38.594 305.881,39.453 305.957 C 40.313 306.033,41.016 306.174,41.016 306.270 C 41.016 306.367,41.492 306.445,42.074 306.445 C 42.737 306.445,43.161 306.535,43.212 306.686 C 43.329 307.038,55.303 307.041,55.420 306.689 C 55.474 306.528,55.926 306.445,56.755 306.445 C 57.444 306.445,58.008 306.368,58.008 306.273 C 58.008 306.179,58.931 306.038,60.059 305.962 C 61.187 305.885,62.109 305.742,62.109 305.645 C 62.109 305.548,62.549 305.469,63.086 305.469 C 63.623 305.469,64.063 305.392,64.063 305.299 C 64.063 305.205,64.678 305.068,65.430 304.994 C 66.182 304.920,66.797 304.784,66.797 304.691 C 66.797 304.599,67.368 304.462,68.066 304.387 C 68.765 304.313,69.336 304.174,69.336 304.079 C 69.336 303.984,69.556 303.906,69.824 303.906 C 70.093 303.906,70.313 303.830,70.313 303.737 C 70.313 303.643,70.677 303.518,71.122 303.458 C 71.567 303.399,71.985 303.264,72.050 303.159 C 72.115 303.054,72.585 302.905,73.096 302.829 C 73.606 302.753,74.023 302.612,74.023 302.517 C 74.023 302.422,74.243 302.344,74.512 302.344 C 74.780 302.344,75.000 302.257,75.000 302.151 C 75.000 302.045,75.352 301.902,75.781 301.833 C 76.211 301.764,76.562 301.632,76.562 301.540 C 76.563 301.447,76.914 301.316,77.344 301.247 C 77.773 301.178,78.125 301.045,78.125 300.952 C 78.125 300.858,78.257 300.781,78.418 300.781 C 78.579 300.781,78.711 300.694,78.711 300.588 C 78.711 300.482,79.062 300.339,79.492 300.270 C 79.922 300.202,80.273 300.076,80.273 299.991 C 80.273 299.905,80.537 299.778,80.859 299.707 C 81.182 299.636,81.445 299.497,81.445 299.399 C 81.445 299.300,81.621 299.219,81.836 299.219 C 82.051 299.219,82.227 299.138,82.227 299.039 C 82.227 298.940,82.490 298.801,82.813 298.730 C 83.135 298.660,83.398 298.525,83.398 298.431 C 83.398 298.337,83.706 298.202,84.082 298.132 C 84.458 298.061,84.766 297.925,84.766 297.830 C 84.766 297.734,84.897 297.656,85.059 297.656 C 85.220 297.656,85.352 297.575,85.352 297.476 C 85.352 297.378,85.615 297.239,85.938 297.168 C 86.260 297.097,86.523 296.960,86.523 296.863 C 86.523 296.766,86.743 296.632,87.012 296.565 C 87.280 296.497,87.500 296.364,87.500 296.268 C 87.500 296.172,87.632 296.094,87.793 296.094 C 87.954 296.094,88.086 296.008,88.086 295.902 C 88.086 295.797,88.306 295.655,88.574 295.588 C 88.843 295.521,89.063 295.387,89.063 295.291 C 89.063 295.196,89.194 295.117,89.355 295.117 C 89.517 295.117,89.648 295.035,89.648 294.935 C 89.648 294.835,89.842 294.691,90.079 294.616 C 90.315 294.541,90.629 294.359,90.776 294.213 C 90.923 294.066,91.148 293.945,91.276 293.945 C 91.404 293.945,91.674 293.726,91.876 293.457 C 92.077 293.188,92.362 292.969,92.508 292.969 C 92.654 292.969,92.773 292.887,92.773 292.787 C 92.773 292.686,92.945 292.550,93.154 292.484 C 93.363 292.417,93.589 292.192,93.656 291.982 C 93.722 291.773,93.902 291.602,94.056 291.602 C 94.429 291.602,97.461 288.558,97.461 288.184 C 97.461 288.022,97.539 287.891,97.634 287.891 C 97.815 287.891,100.733 285.226,102.019 283.887 C 103.788 282.044,108.269 276.226,108.921 274.926 C 109.305 274.161,110.233 272.492,110.983 271.217 C 112.895 267.967,115.954 261.245,117.084 257.810 C 117.384 256.898,118.060 254.979,118.587 253.545 C 119.540 250.951,120.893 245.833,122.052 240.430 C 122.386 238.872,122.921 236.499,123.240 235.156 C 123.559 233.813,123.948 231.968,124.104 231.055 C 124.260 230.142,124.619 228.076,124.902 226.465 C 125.564 222.704,125.733 221.537,125.886 219.668 C 126.010 218.171,126.028 218.127,126.955 217.186 C 127.473 216.659,128.048 215.973,128.233 215.660 C 128.854 214.609,132.377 213.173,136.198 212.413 C 139.212 211.813,144.801 210.406,149.055 209.177 C 156.412 207.050,167.743 206.144,173.340 207.235 C 174.414 207.445,175.315 207.616,175.342 207.617 C 175.369 207.617,175.392 210.671,175.393 214.404 C 175.396 221.460,175.628 229.186,175.977 233.887 C 176.089 235.391,176.312 238.379,176.472 240.527 C 176.632 242.676,176.854 245.796,176.965 247.461 C 177.459 254.907,177.984 259.037,178.525 259.724 C 178.721 259.973,178.938 260.677,179.009 261.289 C 179.195 262.906,180.731 270.528,181.851 275.391 C 183.971 284.599,186.198 289.671,189.937 293.807 C 190.208 294.107,190.430 294.396,190.430 294.450 C 190.430 294.701,193.685 298.047,193.930 298.047 C 194.029 298.047,194.374 298.311,194.697 298.633 C 195.019 298.955,195.377 299.219,195.493 299.219 C 195.608 299.219,195.703 299.301,195.703 299.401 C 195.703 299.501,195.897 299.645,196.133 299.720 C 196.370 299.795,196.684 299.976,196.831 300.123 C 196.978 300.270,197.224 300.391,197.377 300.391 C 197.531 300.391,197.656 300.479,197.656 300.586 C 197.656 300.693,197.788 300.781,197.949 300.781 C 198.110 300.781,198.242 300.865,198.242 300.968 C 198.242 301.070,198.544 301.211,198.912 301.280 C 199.281 301.349,199.630 301.529,199.687 301.679 C 199.745 301.830,199.927 301.953,200.092 301.953 C 200.256 301.953,200.391 302.041,200.391 302.148 C 200.391 302.256,200.566 302.344,200.781 302.344 C 200.996 302.344,201.172 302.425,201.172 302.524 C 201.172 302.622,201.436 302.761,201.758 302.832 C 202.080 302.903,202.344 303.032,202.344 303.119 C 202.344 303.207,202.580 303.337,202.869 303.410 C 203.158 303.482,203.537 303.706,203.711 303.906 C 203.885 304.107,204.264 304.330,204.553 304.403 C 204.842 304.475,205.078 304.608,205.078 304.697 C 205.078 304.786,205.474 304.918,205.957 304.991 C 206.440 305.063,206.836 305.200,206.836 305.296 C 206.836 305.391,206.968 305.469,207.129 305.469 C 207.290 305.469,207.422 305.556,207.422 305.662 C 207.422 305.768,207.773 305.911,208.203 305.980 C 208.633 306.048,208.984 306.181,208.984 306.275 C 208.984 306.369,209.197 306.445,209.456 306.445 C 209.716 306.445,209.958 306.535,209.995 306.644 C 210.031 306.754,210.522 306.898,211.085 306.964 C 211.648 307.031,212.109 307.156,212.109 307.242 C 212.109 307.328,212.725 307.459,213.477 307.533 C 214.229 307.607,214.844 307.744,214.844 307.838 C 214.844 307.931,216.602 308.008,218.750 308.008 C 221.224 308.008,222.656 308.079,222.656 308.203 C 222.656 308.325,223.796 308.398,225.684 308.398 C 227.572 308.398,228.711 308.325,228.711 308.203 C 228.711 308.087,229.427 308.008,230.469 308.008 C 231.436 308.008,232.227 307.929,232.227 307.833 C 232.227 307.736,233.413 307.594,234.863 307.516 C 236.313 307.438,237.500 307.309,237.500 307.228 C 237.500 307.148,238.115 307.021,238.867 306.947 C 239.619 306.873,240.234 306.730,240.234 306.629 C 240.234 306.528,240.542 306.445,240.918 306.445 C 241.294 306.445,241.602 306.369,241.602 306.275 C 241.602 306.181,241.953 306.048,242.383 305.980 C 242.812 305.911,243.164 305.768,243.164 305.662 C 243.164 305.556,243.384 305.469,243.652 305.469 C 243.921 305.469,244.141 305.388,244.141 305.289 C 244.141 305.190,244.404 305.051,244.727 304.980 C 245.049 304.910,245.313 304.775,245.313 304.681 C 245.313 304.587,245.620 304.452,245.996 304.382 C 246.372 304.311,246.680 304.175,246.680 304.080 C 246.680 303.984,246.818 303.906,246.987 303.906 C 247.155 303.906,247.425 303.774,247.586 303.613 C 247.748 303.452,248.093 303.320,248.354 303.320 C 248.615 303.320,248.828 303.239,248.828 303.141 C 248.828 303.042,249.092 302.903,249.414 302.832 C 249.736 302.761,250.000 302.622,250.000 302.524 C 250.000 302.425,250.132 302.344,250.293 302.344 C 250.454 302.344,250.586 302.266,250.586 302.170 C 250.586 302.075,250.894 301.939,251.270 301.868 C 251.646 301.798,251.953 301.666,251.953 301.575 C 251.953 301.484,252.190 301.350,252.479 301.278 C 252.768 301.205,253.146 300.982,253.320 300.781 C 253.494 300.581,253.873 300.357,254.162 300.285 C 254.451 300.212,254.687 300.075,254.688 299.979 C 254.688 299.883,254.866 299.805,255.084 299.805 C 255.302 299.805,255.532 299.673,255.593 299.512 C 255.655 299.351,255.828 299.219,255.978 299.219 C 256.128 299.219,256.250 299.137,256.250 299.037 C 256.250 298.936,256.448 298.792,256.689 298.716 C 256.931 298.641,257.322 298.371,257.559 298.117 C 257.796 297.864,258.103 297.653,258.243 297.648 C 258.382 297.643,258.712 297.380,258.975 297.062 C 259.239 296.744,259.612 296.484,259.805 296.484 C 259.998 296.484,260.156 296.402,260.156 296.302 C 260.156 296.050,262.717 293.555,262.975 293.555 C 263.216 293.555,266.371 290.263,266.490 289.888 C 266.562 289.660,266.788 289.420,266.992 289.355 C 267.196 289.291,267.417 289.067,267.484 288.857 C 267.550 288.648,267.686 288.477,267.787 288.477 C 267.887 288.477,267.969 288.342,267.969 288.177 C 267.969 288.013,268.101 287.828,268.262 287.766 C 268.423 287.704,268.555 287.527,268.555 287.372 C 268.555 287.217,268.762 286.897,269.016 286.661 C 269.269 286.424,269.539 286.033,269.615 285.791 C 269.691 285.549,269.835 285.352,269.935 285.352 C 270.035 285.352,270.117 285.220,270.117 285.059 C 270.117 284.897,270.203 284.766,270.309 284.766 C 270.414 284.766,270.556 284.546,270.623 284.277 C 270.690 284.009,270.814 283.789,270.898 283.789 C 270.983 283.789,271.107 283.569,271.174 283.301 C 271.241 283.032,271.383 282.813,271.488 282.813 C 271.593 282.813,271.680 282.690,271.680 282.540 C 271.680 282.391,271.812 282.218,271.973 282.156 C 272.134 282.094,272.266 281.871,272.266 281.660 C 272.266 281.449,272.438 281.222,272.649 281.154 C 272.891 281.078,273.079 280.788,273.157 280.374 C 273.225 280.011,273.404 279.667,273.554 279.610 C 273.705 279.552,273.828 279.389,273.828 279.248 C 273.828 279.108,274.004 278.866,274.218 278.712 C 274.432 278.557,274.661 278.148,274.725 277.803 C 274.790 277.458,274.966 277.128,275.117 277.070 C 275.267 277.013,275.391 276.831,275.391 276.666 C 275.391 276.502,275.479 276.367,275.586 276.367 C 275.693 276.367,275.781 276.201,275.781 275.997 C 275.781 275.794,275.913 275.577,276.074 275.515 C 276.235 275.453,276.367 275.268,276.367 275.104 C 276.367 274.939,276.445 274.805,276.541 274.805 C 276.636 274.805,276.771 274.502,276.841 274.132 C 276.917 273.722,277.109 273.414,277.330 273.344 C 277.552 273.274,277.743 272.966,277.820 272.552 C 277.890 272.180,278.024 271.875,278.118 271.875 C 278.212 271.875,278.347 271.611,278.418 271.289 C 278.489 270.967,278.628 270.703,278.726 270.703 C 278.825 270.703,278.906 270.571,278.906 270.410 C 278.906 270.249,278.983 270.117,279.077 270.117 C 279.170 270.117,279.303 269.766,279.372 269.336 C 279.441 268.906,279.574 268.555,279.668 268.555 C 279.762 268.555,279.897 268.247,279.968 267.871 C 280.038 267.495,280.180 267.188,280.282 267.188 C 280.385 267.188,280.469 267.056,280.469 266.895 C 280.469 266.733,280.545 266.602,280.639 266.602 C 280.733 266.602,280.866 266.250,280.934 265.820 C 281.003 265.391,281.146 265.039,281.252 265.039 C 281.358 265.039,281.445 264.907,281.445 264.746 C 281.445 264.585,281.522 264.453,281.616 264.453 C 281.709 264.453,281.842 264.102,281.911 263.672 C 281.980 263.242,282.114 262.891,282.211 262.891 C 282.307 262.891,282.446 262.451,282.520 261.914 C 282.593 261.377,282.733 260.937,282.831 260.938 C 282.928 260.938,283.008 260.718,283.008 260.449 C 283.008 260.181,283.084 259.961,283.178 259.961 C 283.272 259.961,283.405 259.609,283.473 259.180 C 283.542 258.750,283.677 258.398,283.773 258.398 C 283.869 258.398,284.008 257.959,284.082 257.422 C 284.156 256.885,284.296 256.445,284.393 256.445 C 284.491 256.445,284.570 256.270,284.570 256.055 C 284.570 255.840,284.650 255.664,284.748 255.664 C 284.846 255.664,284.986 255.313,285.059 254.883 C 285.131 254.453,285.260 254.102,285.344 254.102 C 285.428 254.102,285.553 253.750,285.622 253.320 C 285.691 252.891,285.834 252.539,285.940 252.539 C 286.046 252.539,286.133 252.319,286.133 252.051 C 286.133 251.782,286.220 251.563,286.326 251.563 C 286.432 251.563,286.575 251.211,286.644 250.781 C 286.712 250.352,286.837 250.000,286.921 250.000 C 287.004 250.000,287.133 249.561,287.207 249.023 C 287.281 248.486,287.421 248.047,287.518 248.047 C 287.616 248.047,287.695 247.827,287.695 247.559 C 287.695 247.290,287.773 247.070,287.868 247.070 C 287.964 247.070,288.101 246.675,288.173 246.191 C 288.246 245.708,288.379 245.313,288.470 245.313 C 288.561 245.313,288.696 244.873,288.770 244.336 C 288.843 243.799,288.983 243.359,289.081 243.359 C 289.178 243.359,289.258 243.096,289.258 242.773 C 289.258 242.451,289.334 242.188,289.428 242.188 C 289.521 242.188,289.658 241.660,289.731 241.016 C 289.803 240.371,289.940 239.844,290.033 239.844 C 290.127 239.844,290.264 239.272,290.339 238.574 C 290.414 237.876,290.553 237.305,290.648 237.305 C 290.743 237.305,290.820 237.041,290.820 236.719 C 290.820 236.396,290.898 236.133,290.993 236.133 C 291.088 236.133,291.226 235.649,291.300 235.059 C 291.374 234.468,291.516 233.984,291.616 233.984 C 291.715 233.984,291.797 233.640,291.797 233.219 C 291.797 232.799,291.884 232.425,291.990 232.389 C 292.097 232.354,292.241 231.775,292.311 231.104 C 292.381 230.432,292.504 229.883,292.583 229.883 C 292.662 229.883,292.789 229.224,292.865 228.418 C 292.940 227.612,293.082 226.953,293.181 226.953 C 293.279 226.953,293.359 226.602,293.359 226.172 C 293.359 225.742,293.438 225.391,293.534 225.391 C 293.631 225.391,293.772 224.688,293.848 223.828 C 293.924 222.969,294.059 222.266,294.149 222.266 C 294.239 222.266,294.373 221.650,294.447 220.898 C 294.521 220.146,294.658 219.531,294.752 219.531 C 294.845 219.531,294.922 219.224,294.922 218.848 C 294.922 218.472,295.001 218.164,295.097 218.164 C 295.193 218.164,295.334 217.461,295.410 216.602 C 295.486 215.742,295.622 215.039,295.712 215.039 C 295.801 215.039,295.935 214.424,296.010 213.672 C 296.084 212.920,296.221 212.305,296.314 212.305 C 296.408 212.305,296.484 211.953,296.484 211.523 C 296.484 211.094,296.561 210.742,296.654 210.742 C 296.748 210.742,296.885 209.965,296.960 209.015 L 297.095 207.288 300.549 205.608 C 302.449 204.684,304.726 203.663,305.609 203.339 C 306.491 203.014,307.549 202.578,307.960 202.368 C 308.371 202.159,309.582 201.705,310.652 201.359 C 311.722 201.014,313.169 200.473,313.867 200.157 C 320.647 197.088,330.010 195.234,342.313 194.526 C 344.231 194.415,345.918 194.283,346.060 194.233 C 347.012 193.896,364.975 193.107,369.671 193.195 C 374.050 193.277,373.991 193.245,373.464 195.221 C 373.265 195.970,372.997 197.079,372.869 197.687 C 372.723 198.379,372.360 199.182,371.896 199.836 C 370.108 202.358,369.562 203.533,368.870 206.352 C 365.662 219.420,368.254 224.960,377.539 224.882 C 383.310 224.833,386.993 223.035,389.768 218.911 C 390.293 218.132,391.192 216.878,391.767 216.124 C 392.883 214.661,393.359 213.820,393.741 212.641 C 393.872 212.235,394.260 211.485,394.604 210.975 C 395.937 208.994,397.635 203.187,398.042 199.219 C 398.147 198.198,398.358 196.290,398.512 194.978 C 398.727 193.137,398.743 192.252,398.582 191.103 C 398.410 189.879,398.421 189.584,398.643 189.447 C 398.998 189.228,399.060 177.807,398.708 177.581 C 398.588 177.504,398.428 176.936,398.352 176.318 C 398.276 175.701,398.133 175.195,398.033 175.195 C 397.933 175.195,397.852 175.063,397.852 174.902 C 397.852 174.741,397.771 174.609,397.672 174.609 C 397.573 174.609,397.434 174.346,397.363 174.023 C 397.292 173.701,397.155 173.438,397.059 173.438 C 396.962 173.438,396.832 173.235,396.769 172.987 C 396.707 172.739,396.442 172.375,396.180 172.178 C 395.918 171.981,395.703 171.657,395.703 171.457 C 395.703 171.257,395.622 171.094,395.523 171.094 C 395.288 171.094,394.141 169.946,394.141 169.712 C 394.141 169.612,393.962 169.531,393.744 169.531 C 393.526 169.531,393.298 169.403,393.238 169.246 C 393.177 169.089,392.938 168.900,392.707 168.827 C 392.475 168.754,392.148 168.537,391.981 168.345 C 391.813 168.152,391.440 167.936,391.151 167.863 C 390.861 167.790,390.625 167.660,390.625 167.572 C 390.625 167.485,390.361 167.356,390.039 167.285 C 389.717 167.214,389.453 167.076,389.453 166.977 C 389.453 166.878,389.277 166.797,389.063 166.797 C 388.848 166.797,388.672 166.710,388.672 166.604 C 388.672 166.498,388.320 166.355,387.891 166.286 C 387.461 166.217,387.109 166.090,387.109 166.003 C 387.109 165.916,386.714 165.785,386.230 165.712 C 385.747 165.640,385.352 165.503,385.352 165.408 C 385.352 165.312,385.132 165.234,384.863 165.234 C 384.595 165.234,384.375 165.158,384.375 165.064 C 384.375 164.970,384.023 164.837,383.594 164.769 C 383.164 164.700,382.813 164.558,382.813 164.453 C 382.813 164.348,382.461 164.206,382.031 164.138 C 381.602 164.069,381.250 163.936,381.250 163.842 C 381.250 163.749,380.906 163.672,380.485 163.672 C 380.064 163.672,379.685 163.567,379.643 163.439 C 379.545 163.145,357.753 163.192,357.650 163.486 C 357.612 163.592,356.340 163.672,354.671 163.672 C 353.069 163.672,351.758 163.746,351.758 163.836 C 351.758 163.927,349.851 164.060,347.519 164.132 C 345.188 164.205,343.230 164.347,343.167 164.448 C 343.105 164.549,341.760 164.692,340.179 164.767 C 338.598 164.842,337.305 164.978,337.305 165.069 C 337.305 165.160,336.470 165.234,335.449 165.234 C 334.429 165.234,333.594 165.309,333.594 165.401 C 333.594 165.493,332.475 165.630,331.108 165.706 C 329.740 165.782,328.576 165.916,328.520 166.003 C 328.464 166.090,327.385 166.225,326.123 166.303 C 324.861 166.381,323.828 166.524,323.828 166.621 C 323.828 166.718,323.389 166.797,322.852 166.797 C 322.314 166.797,321.875 166.875,321.875 166.971 C 321.875 167.067,321.084 167.209,320.117 167.285 C 319.150 167.362,318.359 167.494,318.359 167.579 C 318.359 167.663,317.656 167.795,316.797 167.871 C 315.938 167.947,315.234 168.088,315.234 168.184 C 315.234 168.281,314.883 168.359,314.453 168.359 C 314.023 168.359,313.672 168.436,313.672 168.529 C 313.672 168.623,313.057 168.760,312.305 168.834 C 311.553 168.908,310.937 169.039,310.938 169.125 C 310.938 169.210,310.388 169.338,309.717 169.408 C 309.045 169.478,308.467 169.622,308.431 169.728 C 308.395 169.835,308.153 169.922,307.894 169.922 C 307.634 169.922,307.422 169.998,307.422 170.091 C 307.422 170.185,307.058 170.310,306.612 170.370 C 306.167 170.429,305.750 170.564,305.685 170.669 C 305.620 170.774,305.149 170.923,304.639 170.999 C 304.128 171.076,303.711 171.216,303.711 171.311 C 303.711 171.406,303.579 171.484,303.418 171.484 C 303.257 171.484,303.125 171.564,303.125 171.661 C 303.125 171.759,302.686 171.899,302.148 171.973 C 301.611 172.047,301.172 172.180,301.172 172.268 C 301.172 172.357,300.908 172.488,300.586 172.559 C 300.264 172.629,300.000 172.768,300.000 172.867 C 300.000 172.966,299.780 173.047,299.512 173.047 C 299.243 173.047,299.023 173.131,299.023 173.233 C 299.023 173.336,298.716 173.478,298.340 173.548 C 297.964 173.619,297.656 173.754,297.656 173.850 C 297.656 173.945,297.537 174.023,297.391 174.023 C 297.174 174.023,297.109 172.541,297.027 165.780 C 296.956 159.878,296.865 157.516,296.706 157.463 C 296.571 157.418,296.484 156.898,296.484 156.136 C 296.484 155.447,296.407 154.883,296.312 154.883 C 296.218 154.883,296.078 154.048,296.001 153.027 C 295.925 152.007,295.791 151.172,295.705 151.172 C 295.619 151.172,295.486 150.469,295.410 149.609 C 295.334 148.750,295.193 148.047,295.097 148.047 C 295.001 148.047,294.922 147.739,294.922 147.363 C 294.922 146.987,294.841 146.680,294.742 146.680 C 294.643 146.680,294.501 146.108,294.426 145.410 C 294.352 144.712,294.219 144.141,294.132 144.141 C 294.045 144.141,293.913 143.657,293.839 143.066 C 293.765 142.476,293.627 141.992,293.532 141.992 C 293.437 141.992,293.359 141.772,293.359 141.504 C 293.359 141.235,293.281 141.016,293.186 141.016 C 293.091 141.016,292.954 140.620,292.881 140.137 C 292.809 139.653,292.678 139.258,292.591 139.258 C 292.504 139.258,292.377 138.906,292.308 138.477 C 292.239 138.047,292.096 137.695,291.990 137.695 C 291.884 137.695,291.797 137.476,291.797 137.207 C 291.797 136.938,291.710 136.719,291.604 136.719 C 291.498 136.719,291.355 136.367,291.286 135.938 C 291.217 135.508,291.084 135.156,290.991 135.156 C 290.897 135.156,290.820 134.980,290.820 134.766 C 290.820 134.551,290.740 134.375,290.642 134.375 C 290.544 134.375,290.405 134.023,290.332 133.594 C 290.259 133.164,290.121 132.813,290.024 132.813 C 289.927 132.813,289.792 132.461,289.723 132.031 C 289.655 131.602,289.522 131.250,289.428 131.250 C 289.334 131.250,289.258 131.118,289.258 130.957 C 289.258 130.796,289.171 130.664,289.065 130.664 C 288.959 130.664,288.816 130.313,288.747 129.883 C 288.678 129.453,288.546 129.102,288.454 129.102 C 288.361 129.102,288.230 128.750,288.161 128.320 C 288.092 127.891,287.959 127.539,287.866 127.539 C 287.772 127.539,287.695 127.319,287.695 127.051 C 287.695 126.782,287.608 126.563,287.502 126.563 C 287.396 126.563,287.253 126.211,287.184 125.781 C 287.116 125.352,286.990 125.000,286.905 125.000 C 286.819 125.000,286.692 124.736,286.621 124.414 C 286.550 124.092,286.411 123.828,286.313 123.828 C 286.214 123.828,286.133 123.608,286.133 123.340 C 286.133 123.071,286.046 122.852,285.940 122.852 C 285.834 122.852,285.691 122.500,285.622 122.070 C 285.553 121.641,285.421 121.289,285.329 121.289 C 285.236 121.289,285.105 120.938,285.036 120.508 C 284.967 120.078,284.834 119.727,284.741 119.727 C 284.647 119.727,284.570 119.595,284.570 119.434 C 284.570 119.272,284.486 119.141,284.384 119.141 C 284.281 119.141,284.140 118.833,284.069 118.457 C 283.999 118.081,283.871 117.773,283.784 117.773 C 283.698 117.773,283.569 117.422,283.496 116.992 C 283.423 116.562,283.284 116.211,283.186 116.211 C 283.088 116.211,283.008 115.991,283.008 115.723 C 283.008 115.454,282.921 115.234,282.815 115.234 C 282.709 115.234,282.566 114.883,282.497 114.453 C 282.428 114.023,282.303 113.672,282.219 113.672 C 282.135 113.672,282.006 113.320,281.934 112.891 C 281.861 112.461,281.721 112.109,281.623 112.109 C 281.525 112.109,281.445 111.934,281.445 111.719 C 281.445 111.504,281.367 111.328,281.272 111.328 C 281.176 111.328,281.040 111.021,280.970 110.645 C 280.899 110.269,280.758 109.961,280.655 109.961 C 280.553 109.961,280.469 109.829,280.469 109.668 C 280.469 109.507,280.388 109.375,280.289 109.375 C 280.190 109.375,280.051 109.111,279.980 108.789 C 279.910 108.467,279.773 108.203,279.676 108.203 C 279.579 108.203,279.444 107.983,279.377 107.715 C 279.310 107.446,279.176 107.227,279.080 107.227 C 278.985 107.227,278.906 107.132,278.906 107.017 C 278.906 106.902,278.796 106.686,278.662 106.536 C 278.110 105.921,277.971 105.712,277.843 105.307 C 277.769 105.074,277.626 104.883,277.526 104.883 C 277.426 104.883,277.344 104.795,277.344 104.688 C 277.344 104.435,271.936 99.023,271.684 99.023 C 271.444 99.023,268.945 96.513,268.945 96.272 C 268.945 96.174,268.803 96.094,268.630 96.094 C 268.456 96.094,267.793 95.566,267.156 94.922 C 266.520 94.277,265.892 93.750,265.761 93.750 C 265.630 93.750,265.357 93.530,265.156 93.262 C 264.954 92.993,264.670 92.773,264.523 92.773 C 264.377 92.773,264.258 92.691,264.258 92.591 C 264.258 92.491,264.060 92.347,263.818 92.270 C 263.577 92.194,263.247 91.981,263.086 91.797 C 262.925 91.613,262.577 91.394,262.314 91.311 C 262.050 91.228,261.714 91.039,261.567 90.892 C 261.420 90.745,261.175 90.625,261.021 90.625 C 260.868 90.625,260.742 90.537,260.742 90.430 C 260.742 90.322,260.610 90.234,260.449 90.234 C 260.288 90.234,260.156 90.156,260.156 90.061 C 260.156 89.965,259.849 89.830,259.473 89.759 C 259.097 89.688,258.789 89.548,258.789 89.447 C 258.789 89.345,258.438 89.206,258.008 89.138 C 257.578 89.069,257.227 88.936,257.227 88.842 C 257.227 88.749,257.095 88.672,256.934 88.672 C 256.772 88.672,256.641 88.595,256.641 88.502 C 256.641 88.408,256.289 88.275,255.859 88.206 C 255.430 88.138,255.078 87.994,255.078 87.888 C 255.078 87.782,254.866 87.695,254.606 87.695 C 254.347 87.695,254.105 87.610,254.069 87.507 C 254.033 87.403,253.477 87.258,252.832 87.184 C 252.188 87.111,251.597 86.954,251.521 86.836 C 251.321 86.528,237.150 86.534,236.956 86.842 C 236.879 86.963,236.179 87.126,235.400 87.203 C 234.622 87.281,233.984 87.423,233.984 87.520 C 233.984 87.616,233.765 87.695,233.496 87.695 C 233.228 87.695,233.008 87.773,233.008 87.868 C 233.008 87.963,232.524 88.101,231.934 88.175 C 231.343 88.249,230.859 88.391,230.859 88.491 C 230.859 88.590,230.596 88.672,230.273 88.672 C 229.951 88.672,229.688 88.752,229.688 88.849 C 229.688 88.946,229.248 89.086,228.711 89.160 C 228.174 89.234,227.734 89.373,227.734 89.469 C 227.734 89.565,227.383 89.700,226.953 89.769 C 226.523 89.837,226.172 89.970,226.172 90.064 C 226.172 90.158,226.040 90.234,225.879 90.234 C 225.718 90.234,225.586 90.318,225.586 90.421 C 225.586 90.523,225.278 90.665,224.902 90.736 C 224.526 90.806,224.219 90.935,224.219 91.022 C 224.219 91.109,223.955 91.238,223.633 91.309 C 223.311 91.379,223.047 91.518,223.047 91.617 C 223.047 91.716,222.915 91.797,222.754 91.797 C 222.593 91.797,222.461 91.881,222.461 91.983 C 222.461 92.086,222.153 92.228,221.777 92.298 C 221.401 92.369,221.094 92.501,221.094 92.592 C 221.094 92.684,220.764 92.849,220.361 92.960 C 219.958 93.071,219.212 93.404,218.703 93.700 C 217.739 94.261,211.524 100.133,211.523 100.483 C 211.523 100.593,211.193 101.008,210.791 101.404 C 209.961 102.220,209.570 102.672,209.570 102.817 C 209.570 102.872,209.329 103.169,209.033 103.479 C 207.997 104.564,206.273 106.826,202.456 112.109 C 201.409 113.560,199.956 115.518,199.229 116.461 C 197.695 118.450,196.146 121.161,195.222 123.474 C 194.866 124.367,194.136 126.021,193.601 127.148 C 193.066 128.276,192.517 129.551,192.381 129.980 C 192.244 130.410,191.700 131.772,191.172 133.008 C 190.184 135.317,189.157 138.535,188.367 141.797 C 188.119 142.817,187.767 144.004,187.583 144.434 C 187.173 145.396,183.989 154.619,183.101 157.422 C 180.991 164.075,180.481 166.187,179.495 172.352 C 179.144 174.548,178.906 175.558,178.906 174.856 C 178.906 174.740,178.467 174.586,177.930 174.512 C 177.393 174.438,176.953 174.298,176.953 174.200 C 176.953 174.103,176.733 174.023,176.465 174.023 C 176.196 174.023,175.977 173.942,175.977 173.842 C 175.977 173.742,175.493 173.601,174.902 173.527 C 174.312 173.453,173.828 173.315,173.828 173.220 C 173.828 173.125,173.484 173.047,173.063 173.047 C 172.625 173.047,172.263 172.943,172.217 172.803 C 172.153 172.612,170.074 172.559,162.695 172.559 C 155.317 172.559,153.237 172.612,153.174 172.803 C 153.120 172.964,152.668 173.047,151.839 173.047 C 151.150 173.047,150.586 173.124,150.586 173.219 C 150.586 173.313,149.663 173.454,148.535 173.531 C 147.407 173.608,146.484 173.750,146.484 173.847 C 146.484 173.944,146.221 174.023,145.898 174.023 C 145.576 174.023,145.313 174.101,145.313 174.196 C 145.313 174.291,144.741 174.430,144.043 174.505 C 143.345 174.579,142.773 174.713,142.773 174.802 C 142.773 174.891,142.334 175.024,141.797 175.098 C 141.260 175.172,140.820 175.312,140.820 175.409 C 140.820 175.506,140.601 175.586,140.332 175.586 C 140.063 175.586,139.844 175.668,139.844 175.769 C 139.844 175.870,139.448 176.012,138.965 176.084 C 138.481 176.157,138.086 176.284,138.086 176.368 C 138.086 176.451,137.778 176.577,137.402 176.647 C 137.026 176.718,136.719 176.859,136.719 176.962 C 136.719 177.065,136.499 177.148,136.230 177.148 C 135.962 177.148,135.742 177.229,135.742 177.328 C 135.742 177.427,135.479 177.566,135.156 177.637 C 134.834 177.708,134.570 177.845,134.570 177.943 C 134.570 178.041,134.219 178.177,133.789 178.245 C 133.359 178.314,133.008 178.447,133.008 178.541 C 133.008 178.634,132.876 178.711,132.715 178.711 C 132.554 178.711,132.422 178.795,132.422 178.897 C 132.422 179.000,132.114 179.142,131.738 179.212 C 131.362 179.283,131.055 179.411,131.055 179.498 C 131.055 179.585,130.791 179.714,130.469 179.785 C 130.146 179.856,129.883 179.995,129.883 180.094 C 129.883 180.193,129.751 180.273,129.590 180.273 C 129.429 180.273,129.297 180.360,129.297 180.465 C 129.297 180.570,129.077 180.712,128.809 180.779 C 128.540 180.847,128.320 180.976,128.320 181.067 C 128.320 181.158,128.016 181.289,127.643 181.359 C 127.224 181.438,126.922 181.627,126.849 181.856 C 126.693 182.348,126.172 182.332,126.172 181.836 C 126.172 181.621,126.084 181.445,125.977 181.445 C 125.862 181.445,125.781 180.762,125.781 179.785 C 125.781 178.872,125.706 178.125,125.614 178.125 C 125.523 178.125,125.385 176.918,125.308 175.443 C 125.232 173.968,125.097 172.715,125.008 172.660 C 124.920 172.604,124.784 171.526,124.705 170.264 C 124.627 169.001,124.485 167.969,124.391 167.969 C 124.296 167.969,124.219 167.573,124.219 167.090 C 124.219 166.606,124.141 166.211,124.047 166.211 C 123.952 166.211,123.812 165.288,123.735 164.160 C 123.658 163.032,123.522 162.109,123.433 162.109 C 123.344 162.109,123.210 161.318,123.134 160.352 C 123.058 159.385,122.920 158.594,122.826 158.594 C 122.733 158.594,122.656 158.242,122.656 157.813 C 122.656 157.383,122.578 157.031,122.481 157.031 C 122.385 157.031,122.244 156.328,122.168 155.469 C 122.092 154.609,121.962 153.906,121.880 153.906 C 121.798 153.906,121.670 153.291,121.595 152.539 C 121.521 151.787,121.378 151.172,121.277 151.172 C 121.176 151.172,121.094 150.820,121.094 150.391 C 121.094 149.961,121.016 149.609,120.921 149.609 C 120.826 149.609,120.687 149.038,120.613 148.340 C 120.538 147.642,120.396 147.070,120.297 147.070 C 120.198 147.070,120.117 146.763,120.117 146.387 C 120.117 146.011,120.039 145.703,119.944 145.703 C 119.849 145.703,119.711 145.220,119.637 144.629 C 119.564 144.038,119.432 143.555,119.344 143.555 C 119.257 143.555,119.125 143.071,119.051 142.480 C 118.978 141.890,118.836 141.406,118.736 141.406 C 118.636 141.406,118.555 141.187,118.555 140.918 C 118.555 140.649,118.475 140.430,118.378 140.430 C 118.280 140.430,118.140 139.990,118.066 139.453 C 117.993 138.916,117.860 138.477,117.772 138.477 C 117.684 138.477,117.553 138.125,117.480 137.695 C 117.408 137.266,117.268 136.914,117.170 136.914 C 117.072 136.914,116.992 136.782,116.992 136.621 C 116.992 136.460,116.916 136.328,116.822 136.328 C 116.728 136.328,116.595 135.977,116.527 135.547 C 116.458 135.117,116.316 134.766,116.211 134.766 C 116.106 134.766,115.964 134.414,115.895 133.984 C 115.827 133.555,115.694 133.203,115.600 133.203 C 115.506 133.203,115.430 133.071,115.430 132.910 C 115.430 132.749,115.346 132.617,115.243 132.617 C 115.141 132.617,114.999 132.310,114.929 131.934 C 114.858 131.558,114.729 131.250,114.642 131.250 C 114.555 131.250,114.426 130.986,114.355 130.664 C 114.285 130.342,114.146 130.078,114.047 130.078 C 113.948 130.078,113.867 129.946,113.867 129.785 C 113.867 129.624,113.783 129.492,113.681 129.492 C 113.578 129.492,113.437 129.185,113.366 128.809 C 113.295 128.433,113.167 128.125,113.080 128.125 C 112.993 128.125,112.864 127.861,112.793 127.539 C 112.722 127.217,112.583 126.953,112.484 126.953 C 112.386 126.953,112.305 126.821,112.305 126.660 C 112.305 126.499,112.221 126.367,112.118 126.367 C 112.016 126.367,111.875 126.066,111.806 125.697 C 111.737 125.329,111.557 124.980,111.407 124.922 C 111.256 124.864,111.133 124.638,111.133 124.420 C 111.133 124.202,111.045 124.023,110.938 124.023 C 110.830 124.023,110.742 123.892,110.742 123.730 C 110.742 123.569,110.661 123.438,110.562 123.438 C 110.464 123.438,110.325 123.174,110.254 122.852 C 110.183 122.529,110.044 122.266,109.945 122.266 C 109.847 122.266,109.766 122.134,109.766 121.973 C 109.766 121.812,109.688 121.680,109.592 121.680 C 109.497 121.680,109.362 121.381,109.294 121.015 C 109.225 120.649,109.040 120.301,108.881 120.240 C 108.723 120.179,108.594 119.951,108.594 119.733 C 108.594 119.514,108.506 119.336,108.398 119.336 C 108.291 119.336,108.203 119.204,108.203 119.043 C 108.203 118.882,108.125 118.750,108.029 118.750 C 107.933 118.750,107.800 118.530,107.732 118.262 C 107.665 117.993,107.531 117.773,107.434 117.773 C 107.337 117.773,107.200 117.510,107.129 117.188 C 107.058 116.865,106.919 116.602,106.820 116.602 C 106.722 116.602,106.641 116.470,106.641 116.309 C 106.641 116.147,106.559 116.016,106.458 116.016 C 106.358 116.016,106.215 115.822,106.140 115.585 C 106.065 115.349,105.883 115.035,105.736 114.888 C 105.589 114.741,105.469 114.495,105.469 114.342 C 105.469 114.188,105.381 114.063,105.273 114.063 C 105.166 114.063,105.078 113.931,105.078 113.770 C 105.078 113.608,104.996 113.477,104.896 113.477 C 104.796 113.477,104.652 113.283,104.577 113.046 C 104.502 112.810,104.320 112.496,104.173 112.349 C 104.026 112.202,103.906 111.962,103.906 111.816 C 103.906 111.669,103.730 111.494,103.516 111.426 C 103.301 111.358,103.125 111.150,103.125 110.964 C 103.125 110.778,102.865 110.411,102.547 110.147 C 102.230 109.884,101.966 109.514,101.961 109.326 C 101.957 109.138,101.862 108.984,101.752 108.984 C 101.641 108.984,101.492 108.831,101.421 108.643 C 101.350 108.455,101.002 108.017,100.646 107.669 C 100.291 107.322,100.000 106.949,100.000 106.841 C 100.000 106.733,99.736 106.392,99.414 106.084 C 99.092 105.776,98.828 105.420,98.828 105.292 C 98.828 105.040,97.892 104.102,97.641 104.102 C 97.556 104.102,97.426 103.907,97.350 103.670 C 97.275 103.432,96.873 102.901,96.458 102.490 C 96.043 102.079,95.703 101.656,95.703 101.551 C 95.703 101.445,95.220 100.890,94.629 100.318 C 94.038 99.746,93.555 99.133,93.555 98.955 C 93.555 98.778,93.474 98.633,93.374 98.633 C 93.275 98.633,92.934 98.359,92.616 98.024 C 92.299 97.689,91.938 97.315,91.815 97.194 C 91.692 97.072,91.483 96.859,91.352 96.719 C 91.221 96.580,91.001 96.360,90.863 96.231 C 90.725 96.102,90.362 95.744,90.056 95.436 C 89.750 95.127,89.397 94.776,89.271 94.654 C 89.146 94.533,88.896 94.280,88.716 94.092 C 88.537 93.904,88.315 93.750,88.223 93.750 C 88.132 93.750,87.622 93.311,87.091 92.773 C 86.559 92.236,86.034 91.797,85.924 91.797 C 85.814 91.797,85.530 91.589,85.293 91.336 C 85.057 91.082,84.666 90.813,84.424 90.737 C 84.182 90.661,83.984 90.517,83.984 90.417 C 83.984 90.316,83.892 90.234,83.780 90.234 C 83.667 90.234,83.372 90.015,83.123 89.747 C 82.874 89.478,82.398 89.204,82.064 89.137 C 81.719 89.068,81.408 88.861,81.342 88.655 C 81.273 88.437,80.963 88.245,80.555 88.169 C 80.185 88.099,79.883 87.964,79.883 87.869 C 79.883 87.773,79.751 87.695,79.590 87.695 C 79.429 87.695,79.297 87.614,79.297 87.516 C 79.297 87.417,79.033 87.278,78.711 87.207 C 78.389 87.136,78.125 87.006,78.125 86.917 C 78.125 86.828,77.686 86.695,77.148 86.621 C 76.611 86.547,76.172 86.407,76.172 86.310 C 76.172 86.212,75.952 86.133,75.684 86.133 C 75.415 86.133,75.195 86.055,75.195 85.960 C 75.195 85.865,74.690 85.724,74.072 85.647 C 73.455 85.570,72.902 85.431,72.843 85.337 C 72.785 85.243,71.620 85.107,70.255 85.034 C 68.890 84.961,67.773 84.827,67.773 84.736 C 67.773 84.645,66.191 84.570,64.258 84.570 C 62.324 84.570,60.742 84.645,60.742 84.736 M60.883 113.964 C 64.759 114.878,71.501 120.568,75.449 126.258 C 76.115 127.218,77.206 128.595,77.873 129.318 C 78.540 130.041,79.413 131.144,79.814 131.771 C 80.215 132.398,80.913 133.414,81.366 134.029 C 83.213 136.539,85.037 140.687,86.059 144.698 C 86.433 146.164,87.563 149.824,88.571 152.832 C 89.579 155.840,90.537 158.828,90.699 159.473 C 91.387 162.213,93.196 171.659,93.653 174.902 C 93.926 176.836,94.235 178.857,94.340 179.395 C 94.445 179.932,94.841 183.008,95.220 186.230 C 95.978 192.670,96.178 194.039,97.166 199.512 C 98.505 206.933,98.734 215.993,97.788 224.121 C 95.614 242.797,94.235 246.875,86.244 258.270 C 82.517 263.584,76.487 269.603,73.658 270.834 C 73.053 271.097,71.636 271.782,70.508 272.356 C 69.380 272.930,67.842 273.577,67.090 273.793 C 66.338 274.010,64.800 274.499,63.672 274.879 C 55.567 277.614,50.309 278.065,47.198 276.293 C 44.484 274.747,38.485 268.034,37.315 265.234 C 37.068 264.644,36.695 263.918,36.486 263.623 C 36.277 263.328,35.769 262.097,35.356 260.889 C 34.944 259.680,34.283 257.769,33.887 256.641 C 33.348 255.107,32.928 253.186,32.220 249.023 C 30.168 236.959,29.921 230.792,30.770 212.891 C 30.931 209.507,31.143 202.432,31.242 197.168 C 31.393 189.130,31.487 187.160,31.828 184.863 C 32.280 181.826,32.672 178.087,33.108 172.658 C 33.430 168.648,33.794 166.396,35.661 156.836 C 40.329 132.943,46.000 120.635,54.860 115.166 C 57.217 113.712,58.622 113.431,60.883 113.964 M241.890 116.146 C 244.125 116.996,249.570 121.870,250.678 124.012 C 250.852 124.350,251.374 125.215,251.837 125.936 C 252.299 126.657,253.301 128.407,254.062 129.826 C 254.823 131.244,256.132 133.395,256.971 134.605 C 260.814 140.149,261.109 140.901,263.784 151.953 C 265.766 160.142,266.731 165.178,267.864 173.242 C 268.248 175.981,268.778 179.629,269.042 181.348 C 270.809 192.887,271.109 200.652,270.037 207.129 C 269.771 208.740,269.413 211.157,269.243 212.500 C 268.810 215.903,268.677 216.587,267.255 222.656 C 265.548 229.943,265.463 230.226,263.281 235.922 C 259.272 246.387,258.263 248.795,257.117 250.634 C 256.073 252.310,252.224 258.948,249.591 263.617 C 248.532 265.494,247.031 267.627,245.245 269.793 C 244.816 270.313,243.667 271.380,242.692 272.164 C 241.716 272.948,240.259 274.265,239.453 275.091 C 237.900 276.682,237.484 276.952,235.148 277.884 C 230.624 279.688,227.257 279.903,223.179 278.649 C 219.081 277.389,215.118 273.096,211.429 265.918 C 210.381 263.877,209.224 261.669,208.860 261.012 C 206.465 256.688,203.599 244.328,203.024 235.840 C 202.871 233.584,202.590 230.068,202.399 228.027 C 201.311 216.423,202.416 198.109,205.097 183.301 C 206.898 173.349,212.546 155.550,216.346 147.852 C 217.486 145.542,219.267 141.851,220.304 139.648 C 222.192 135.640,223.693 133.051,226.252 129.395 C 227.004 128.320,228.310 126.343,229.155 125.000 C 231.452 121.352,235.924 116.920,238.142 116.096 C 239.718 115.511,240.236 115.518,241.890 116.146 " stroke="none" fill-rule="evenodd"></path>
    <path id="path1" d="" stroke="none" fill-rule="evenodd"></path>
    <path id="path2" d="" stroke="none" fill-rule="evenodd"></path>
    <path id="path3" d="" stroke="none" fill-rule="evenodd"></path>
    <path id="path4" d="" stroke="none" fill-rule="evenodd"></path>
  </g>
</svg>